<svg width="493" height="485" viewBox="0 0 493 485" fill="none" xmlns="http://www.w3.org/2000/svg">
<g clip-path="url(#clip0_19_138)">
<path d="M311.952 20.8476C379.899 54.2061 421.457 107.84 434.625 181.836C444.86 239.344 431.244 292.48 398.257 340.623C395.438 344.736 392.369 348.697 389.173 352.527C387.377 354.679 387.489 356.208 389.492 358.017C391.342 359.689 393.132 361.464 394.726 363.378C397.86 367.14 401.249 369.56 406.672 368.899C411.14 368.355 415 370.688 418.235 373.87C441.042 396.299 463.915 418.66 486.664 441.147C493.971 448.371 494.179 459.695 487.24 467.363C483.67 471.309 479.853 475.079 475.82 478.548C466.957 486.169 455.572 485.768 447.471 477.581C424.973 454.842 402.581 431.998 380.085 409.256C376.377 405.508 374.829 401.065 375.691 396.064C376.241 392.878 375.68 390.712 373.161 388.702C369.802 386.022 367.552 380.753 363.588 380.43C359.543 380.1 356.655 385.038 353.279 387.663C321.097 412.692 284.905 428.237 244.384 432.883C192.426 438.84 144.276 427.207 100.551 398.749C49.0306 365.218 16.4664 317.937 4.44727 257.742C-7.67627 197.024 5.0785 140.826 41.3788 90.6215C74.8497 44.3303 120.298 15.7719 176.187 4.47549C222.951 -4.9768 268.23 0.564636 311.952 20.8476ZM110.519 370.845C120.866 378.232 131.952 384.314 143.616 389.327C183.722 406.563 225.017 409.824 267.204 398.82C305.742 388.767 337.913 368.179 363.579 337.75C397.309 297.76 412.803 251.386 408.155 199.349C404.378 157.072 387.518 119.707 357.532 89.3632C301.53 32.6932 234.487 15.9498 158.711 39.5034C108.486 55.1147 71.7473 88.3216 48.1723 135.443C30.6714 170.424 24.6545 207.616 31.4921 246.106C40.7027 297.954 67.0528 339.546 110.519 370.845Z" fill="white"/>
<path d="M321.918 175.097C330.73 175.089 339.055 175.034 347.379 175.098C353.521 175.146 354.799 176.4 354.791 182.389C354.727 230.336 354.623 278.283 354.576 326.231C354.573 328.477 354.288 330.423 352.743 332.225C341.072 345.84 327.63 357.421 312.72 367.334C312.489 367.488 312.084 367.38 311.629 367.401C309.851 365.879 310.604 363.744 310.602 361.883C310.551 303.278 310.547 244.674 310.541 186.069C310.54 175.161 310.552 175.161 321.918 175.097Z" fill="white"/>
<path d="M238.417 277.294C237.16 264.856 238.905 252.851 237.925 240.885C237.615 237.108 239.43 235.28 243.127 235.267C254.454 235.227 265.781 235.193 277.107 235.219C280.365 235.227 281.946 237.052 281.967 240.277C281.976 241.777 282.014 243.276 282.013 244.775C281.991 289.429 281.901 334.082 282.037 378.735C282.052 383.357 280.666 385.482 276.146 386.859C265.132 390.213 254.095 393.233 242.642 394.699C239.169 395.143 238.216 393.945 238.225 390.711C238.332 353.064 238.366 315.416 238.417 277.294Z" fill="white"/>
<path d="M309.07 132.339C311.931 129.963 311.626 128.084 309.022 126.101C305.624 123.512 302.027 121.111 298.629 116.964C315.184 111.207 331.503 107.301 348.845 102.196C345.227 119.538 340.132 134.964 335.411 151.9C330.927 147.203 327.433 143.544 324.012 139.96C321.534 140.374 320.48 142.244 319.12 143.598C293.497 169.117 267.928 194.691 242.294 220.199C240.145 222.337 239.173 224.306 239.577 227.613C240.533 235.43 234.111 242.724 225.889 243.984C218.134 245.172 210.025 239.854 208.723 232.116C208.178 228.884 206.825 227.167 204.083 225.776C195.168 221.257 186.341 216.567 177.487 211.928C175.681 210.982 174.006 210.149 171.924 211.524C168.52 213.772 164.599 213.866 160.81 213.103C158.357 212.608 156.767 213.167 155.05 214.837C140.719 228.779 126.346 242.678 111.915 256.518C109.814 258.533 109.092 260.733 109.061 263.601C108.95 273.686 102.14 279.872 92.0074 279.366C83.6849 278.951 76.7908 270.949 77.6375 262.688C78.5645 253.643 86.7826 247.131 95.9798 248.549C99.2327 249.051 101.328 247.959 103.499 245.862C117.522 232.323 131.593 218.832 145.705 205.386C147.645 203.538 148.544 201.605 148.55 198.838C148.57 189.794 153.863 183.696 162.235 182.626C170.754 181.538 176.819 185.752 179.491 194.822C180.158 197.083 181.353 198.521 183.439 199.593C192.773 204.388 202.045 209.304 211.34 214.175C211.93 214.484 212.764 215.205 213.082 215.025C219.224 211.539 227.198 215.167 232.9 209.353C258.099 183.656 283.496 158.154 309.07 132.339Z" fill="#9F853B"/>
<path d="M209.177 347.05C209.174 362.029 209.08 376.509 209.23 390.986C209.268 394.678 208.244 395.878 204.365 395.594C192.523 394.724 181.012 392.287 169.579 389.262C166.648 388.487 165.607 386.789 165.609 383.865C165.629 344.922 165.607 305.978 165.541 267.035C165.535 263.358 167.366 261.964 170.773 261.965C181.59 261.968 192.409 262.06 203.224 261.892C207.775 261.822 209.28 263.667 209.254 268.164C209.103 294.292 209.178 320.421 209.177 347.05Z" fill="white"/>
<path d="M116.961 363.974C109.371 358.773 102.733 352.979 96.2017 347.046C94.2237 345.249 93.4545 343.28 93.3234 340.534C92.7358 328.23 93.1002 315.928 92.9996 303.627C92.9675 299.687 94.5726 297.763 98.6098 297.782C109.593 297.834 120.576 297.824 131.559 297.764C135.191 297.745 137.138 299.08 137.125 303.019C137.053 325.817 137.079 348.616 137.051 371.414C137.049 372.539 137.204 373.766 135.495 375.187C129.109 372.49 123.323 368.081 116.961 363.974Z" fill="white"/>
</g>
<defs>
<clipPath id="clip0_19_138">
<rect width="492.3" height="484.01" fill="white"/>
</clipPath>
</defs>
</svg>
